<svg xmlns="http://www.w3.org/2000/svg" width="1200" height="675" viewBox="0 0 1200 675" role="img" aria-label="第5章：零样本/少样本效果对比" font-family="Noto Sans SC, Source Han Sans SC, PingFang SC, system-ui, sans-serif">
  <defs>
    <filter id="soft-shadow" x="-8%" y="-12%" width="116%" height="128%">
      <feDropShadow dx="0" dy="5" stdDeviation="7" flood-color="#111827" flood-opacity="0.08"/>
    </filter>
    <pattern id="dot-grid" width="28" height="28" patternUnits="userSpaceOnUse">
      <circle cx="1.5" cy="1.5" r="1.2" fill="#e8e4da" opacity="0.85"/>
    </pattern>
    <marker id="arrow" markerWidth="12" markerHeight="12" refX="10" refY="6" orient="auto" markerUnits="strokeWidth">
      <path d="M2,2 L10,6 L2,10" fill="none" stroke="#1f4e79" stroke-width="2" stroke-linecap="round" stroke-linejoin="round" />
    </marker>
  </defs>
  <rect width="1200" height="675" fill="#f5f4ed"/>
  <rect x="1" y="1" width="1198" height="673" rx="18" fill="#faf9f5" stroke="#d9d6cc" stroke-width="1.6"/>
  <rect x="1" y="1" width="1198" height="673" rx="18" fill="url(#dot-grid)" opacity="0.34"/>
  <rect x="72" y="206" width="1056" height="390" rx="16" fill="#f5f4ed" stroke="#d9d6cc" stroke-width="1.1" opacity="0.82"/>
  <text x="84" y="82" fill="#1f4e79" font-size="12" font-weight="800" letter-spacing="1.2">第5章</text>
  <text x="1116" y="82" text-anchor="end" fill="#5f6673" font-size="11" font-weight="700" letter-spacing="1">教学图示</text>
  <rect x="84" y="100" width="54" height="4" rx="2" fill="#1f4e79"/>
  <text x="84.0" y="136.0" text-anchor="start" fill="#111827" font-size="31" font-weight="800"><tspan x="84.0" dy="0">第5章：零样本/少样本效果对比</tspan></text>
  <text x="84.0" y="178.0" text-anchor="start" fill="#5f6673" font-size="15" font-weight="500"><tspan x="84.0" dy="0">不同样本数量对输出风格一致性的影响</tspan></text>
  <line x1="600" y1="220" x2="600" y2="588" stroke="#c9c4b8" stroke-width="2"/>
  <line x1="86" y1="406" x2="1114" y2="406" stroke="#c9c4b8" stroke-width="2"/>
  <rect x="104.0" y="236.0" width="472.0" height="142.0" rx="8" fill="#f7f5ee" stroke="#1f4e79" stroke-width="1.4" filter="url(#soft-shadow)"/>
  <rect x="104.0" y="236.0" width="472.0" height="5" rx="2.5" fill="#1f4e79"/>
  <circle cx="130.0" cy="264.0" r="15" fill="#1f4e79"/>
  <text x="130.0" y="269.0" text-anchor="middle" fill="#ffffff" font-size="12" font-weight="800"><tspan x="130.0" dy="0">1</tspan></text>
  <text x="156.0" y="269.0" text-anchor="start" fill="#111827" font-size="17" font-weight="760"><tspan x="156.0" dy="0">Quadrant 1</tspan></text>
  <text x="126.0" y="350.0" text-anchor="start" fill="#5f6673" font-size="12" font-weight="560"><tspan x="126.0" dy="0">依赖模型默认风格，适合通用任务</tspan></text>
  <rect x="624.0" y="236.0" width="472.0" height="142.0" rx="8" fill="#faf9f5" stroke="#d9d6cc" stroke-width="1.4" filter="url(#soft-shadow)"/>
  <circle cx="650.0" cy="264.0" r="15" fill="#1f4e79"/>
  <text x="650.0" y="269.0" text-anchor="middle" fill="#ffffff" font-size="12" font-weight="800"><tspan x="650.0" dy="0">2</tspan></text>
  <text x="676.0" y="269.0" text-anchor="start" fill="#111827" font-size="17" font-weight="760"><tspan x="676.0" dy="0">Quadrant 2</tspan></text>
  <text x="646.0" y="350.0" text-anchor="start" fill="#5f6673" font-size="12" font-weight="560"><tspan x="646.0" dy="0">建立基本风格参考，适合简单格式任务</tspan></text>
  <rect x="104.0" y="424.0" width="472.0" height="142.0" rx="8" fill="#faf9f5" stroke="#d9d6cc" stroke-width="1.4" filter="url(#soft-shadow)"/>
  <circle cx="130.0" cy="452.0" r="15" fill="#1f4e79"/>
  <text x="130.0" y="457.0" text-anchor="middle" fill="#ffffff" font-size="12" font-weight="800"><tspan x="130.0" dy="0">3</tspan></text>
  <text x="156.0" y="457.0" text-anchor="start" fill="#111827" font-size="17" font-weight="760"><tspan x="156.0" dy="0">Quadrant 3</tspan></text>
  <text x="126.0" y="538.0" text-anchor="start" fill="#5f6673" font-size="12" font-weight="560"><tspan x="126.0" dy="0">风格一致性高，最推荐的默认选择</tspan></text>
  <rect x="624.0" y="424.0" width="472.0" height="142.0" rx="8" fill="#faf9f5" stroke="#d9d6cc" stroke-width="1.4" filter="url(#soft-shadow)"/>
  <circle cx="650.0" cy="452.0" r="15" fill="#1f4e79"/>
  <text x="650.0" y="457.0" text-anchor="middle" fill="#ffffff" font-size="12" font-weight="800"><tspan x="650.0" dy="0">4</tspan></text>
  <text x="676.0" y="457.0" text-anchor="start" fill="#111827" font-size="17" font-weight="760"><tspan x="676.0" dy="0">Quadrant 4</tspan></text>
  <text x="646.0" y="538.0" text-anchor="start" fill="#5f6673" font-size="12" font-weight="560"><tspan x="646.0" dy="0">边际效益递减，消耗大量上下文</tspan></text>
</svg>
